<mxfile host="65bd71144e">
    <diagram id="_q-qaO7Fu28yHsH5B48G" name="PÃ¡gina-1">
        <mxGraphModel dx="810" dy="403" grid="1" gridSize="10" guides="1" tooltips="1" connect="1" arrows="1" fold="1" page="1" pageScale="1" pageWidth="827" pageHeight="1169" math="0" shadow="0">
            <root>
                <mxCell id="0"/>
                <mxCell id="1" parent="0"/>
                <mxCell id="2" value="Aula" style="swimlane;fontStyle=1;align=center;verticalAlign=top;childLayout=stackLayout;horizontal=1;startSize=26;horizontalStack=0;resizeParent=1;resizeParentMax=0;resizeLast=0;collapsible=1;marginBottom=0;whiteSpace=wrap;html=1;" parent="1" vertex="1">
                    <mxGeometry x="320" y="54" width="160" height="112" as="geometry"/>
                </mxCell>
                <mxCell id="3" value="+ id: int" style="text;strokeColor=none;fillColor=none;align=left;verticalAlign=top;spacingLeft=4;spacingRight=4;overflow=hidden;rotatable=0;points=[[0,0.5],[1,0.5]];portConstraint=eastwest;whiteSpace=wrap;html=1;" parent="2" vertex="1">
                    <mxGeometry y="26" width="160" height="26" as="geometry"/>
                </mxCell>
                <mxCell id="AyIgecjiQ9jhVwXXPCx3-26" value="+ modalidade: string" style="text;strokeColor=none;fillColor=none;align=left;verticalAlign=top;spacingLeft=4;spacingRight=4;overflow=hidden;rotatable=0;points=[[0,0.5],[1,0.5]];portConstraint=eastwest;whiteSpace=wrap;html=1;" parent="2" vertex="1">
                    <mxGeometry y="52" width="160" height="26" as="geometry"/>
                </mxCell>
                <mxCell id="4" value="" style="line;strokeWidth=1;fillColor=none;align=left;verticalAlign=middle;spacingTop=-1;spacingLeft=3;spacingRight=3;rotatable=0;labelPosition=right;points=[];portConstraint=eastwest;strokeColor=inherit;" parent="2" vertex="1">
                    <mxGeometry y="78" width="160" height="8" as="geometry"/>
                </mxCell>
                <mxCell id="5" value="+ method(type): type" style="text;strokeColor=none;fillColor=none;align=left;verticalAlign=top;spacingLeft=4;spacingRight=4;overflow=hidden;rotatable=0;points=[[0,0.5],[1,0.5]];portConstraint=eastwest;whiteSpace=wrap;html=1;" parent="2" vertex="1">
                    <mxGeometry y="86" width="160" height="26" as="geometry"/>
                </mxCell>
                <mxCell id="6" value="Turma" style="swimlane;fontStyle=1;align=center;verticalAlign=top;childLayout=stackLayout;horizontal=1;startSize=26;horizontalStack=0;resizeParent=1;resizeParentMax=0;resizeLast=0;collapsible=1;marginBottom=0;whiteSpace=wrap;html=1;" parent="1" vertex="1">
                    <mxGeometry x="520" y="240" width="160" height="86" as="geometry"/>
                </mxCell>
                <mxCell id="7" value="+ matricula: string" style="text;strokeColor=none;fillColor=none;align=left;verticalAlign=top;spacingLeft=4;spacingRight=4;overflow=hidden;rotatable=0;points=[[0,0.5],[1,0.5]];portConstraint=eastwest;whiteSpace=wrap;html=1;" parent="6" vertex="1">
                    <mxGeometry y="26" width="160" height="26" as="geometry"/>
                </mxCell>
                <mxCell id="8" value="" style="line;strokeWidth=1;fillColor=none;align=left;verticalAlign=middle;spacingTop=-1;spacingLeft=3;spacingRight=3;rotatable=0;labelPosition=right;points=[];portConstraint=eastwest;strokeColor=inherit;" parent="6" vertex="1">
                    <mxGeometry y="52" width="160" height="8" as="geometry"/>
                </mxCell>
                <mxCell id="9" value="+ method(type): type" style="text;strokeColor=none;fillColor=none;align=left;verticalAlign=top;spacingLeft=4;spacingRight=4;overflow=hidden;rotatable=0;points=[[0,0.5],[1,0.5]];portConstraint=eastwest;whiteSpace=wrap;html=1;" parent="6" vertex="1">
                    <mxGeometry y="60" width="160" height="26" as="geometry"/>
                </mxCell>
                <mxCell id="10" value="Professor" style="swimlane;fontStyle=1;align=center;verticalAlign=top;childLayout=stackLayout;horizontal=1;startSize=26;horizontalStack=0;resizeParent=1;resizeParentMax=0;resizeLast=0;collapsible=1;marginBottom=0;whiteSpace=wrap;html=1;" parent="1" vertex="1">
                    <mxGeometry x="315" y="240" width="170" height="138" as="geometry"/>
                </mxCell>
                <mxCell id="11" value="+ nome: string" style="text;strokeColor=none;fillColor=none;align=left;verticalAlign=top;spacingLeft=4;spacingRight=4;overflow=hidden;rotatable=0;points=[[0,0.5],[1,0.5]];portConstraint=eastwest;whiteSpace=wrap;html=1;" parent="10" vertex="1">
                    <mxGeometry y="26" width="170" height="26" as="geometry"/>
                </mxCell>
                <mxCell id="21" value="+ horarios: list[horario]" style="text;strokeColor=none;fillColor=none;align=left;verticalAlign=top;spacingLeft=4;spacingRight=4;overflow=hidden;rotatable=0;points=[[0,0.5],[1,0.5]];portConstraint=eastwest;whiteSpace=wrap;html=1;" parent="10" vertex="1">
                    <mxGeometry y="52" width="170" height="26" as="geometry"/>
                </mxCell>
                <mxCell id="nUJsthn_LZTXX1SrQf7L-22" value="+ preferencias: list[disciplina]" style="text;strokeColor=none;fillColor=none;align=left;verticalAlign=top;spacingLeft=4;spacingRight=4;overflow=hidden;rotatable=0;points=[[0,0.5],[1,0.5]];portConstraint=eastwest;whiteSpace=wrap;html=1;" parent="10" vertex="1">
                    <mxGeometry y="78" width="170" height="26" as="geometry"/>
                </mxCell>
                <mxCell id="12" value="" style="line;strokeWidth=1;fillColor=none;align=left;verticalAlign=middle;spacingTop=-1;spacingLeft=3;spacingRight=3;rotatable=0;labelPosition=right;points=[];portConstraint=eastwest;strokeColor=inherit;" parent="10" vertex="1">
                    <mxGeometry y="104" width="170" height="8" as="geometry"/>
                </mxCell>
                <mxCell id="13" value="+ method(type): type" style="text;strokeColor=none;fillColor=none;align=left;verticalAlign=top;spacingLeft=4;spacingRight=4;overflow=hidden;rotatable=0;points=[[0,0.5],[1,0.5]];portConstraint=eastwest;whiteSpace=wrap;html=1;" parent="10" vertex="1">
                    <mxGeometry y="112" width="170" height="26" as="geometry"/>
                </mxCell>
                <mxCell id="14" value="Disciplina" style="swimlane;fontStyle=1;align=center;verticalAlign=top;childLayout=stackLayout;horizontal=1;startSize=26;horizontalStack=0;resizeParent=1;resizeParentMax=0;resizeLast=0;collapsible=1;marginBottom=0;whiteSpace=wrap;html=1;" parent="1" vertex="1">
                    <mxGeometry x="120" y="240" width="160" height="138" as="geometry"/>
                </mxCell>
                <mxCell id="nUJsthn_LZTXX1SrQf7L-39" value="+ curso: string" style="text;strokeColor=none;fillColor=none;align=left;verticalAlign=top;spacingLeft=4;spacingRight=4;overflow=hidden;rotatable=0;points=[[0,0.5],[1,0.5]];portConstraint=eastwest;whiteSpace=wrap;html=1;" parent="14" vertex="1">
                    <mxGeometry y="26" width="160" height="26" as="geometry"/>
                </mxCell>
                <mxCell id="15" value="+ nome: string" style="text;strokeColor=none;fillColor=none;align=left;verticalAlign=top;spacingLeft=4;spacingRight=4;overflow=hidden;rotatable=0;points=[[0,0.5],[1,0.5]];portConstraint=eastwest;whiteSpace=wrap;html=1;" parent="14" vertex="1">
                    <mxGeometry y="52" width="160" height="26" as="geometry"/>
                </mxCell>
                <mxCell id="18" value="+ matricula: string" style="text;strokeColor=none;fillColor=none;align=left;verticalAlign=top;spacingLeft=4;spacingRight=4;overflow=hidden;rotatable=0;points=[[0,0.5],[1,0.5]];portConstraint=eastwest;whiteSpace=wrap;html=1;" parent="14" vertex="1">
                    <mxGeometry y="78" width="160" height="26" as="geometry"/>
                </mxCell>
                <mxCell id="16" value="" style="line;strokeWidth=1;fillColor=none;align=left;verticalAlign=middle;spacingTop=-1;spacingLeft=3;spacingRight=3;rotatable=0;labelPosition=right;points=[];portConstraint=eastwest;strokeColor=inherit;" parent="14" vertex="1">
                    <mxGeometry y="104" width="160" height="8" as="geometry"/>
                </mxCell>
                <mxCell id="17" value="+ method(type): type" style="text;strokeColor=none;fillColor=none;align=left;verticalAlign=top;spacingLeft=4;spacingRight=4;overflow=hidden;rotatable=0;points=[[0,0.5],[1,0.5]];portConstraint=eastwest;whiteSpace=wrap;html=1;" parent="14" vertex="1">
                    <mxGeometry y="112" width="160" height="26" as="geometry"/>
                </mxCell>
                <mxCell id="nUJsthn_LZTXX1SrQf7L-35" value="" style="endArrow=diamondThin;endFill=0;endSize=16;html=1;entryX=0;entryY=0.5;entryDx=0;entryDy=0;exitX=0.5;exitY=0;exitDx=0;exitDy=0;" parent="1" source="14" target="5" edge="1">
                    <mxGeometry width="160" relative="1" as="geometry">
                        <mxPoint x="150" y="190" as="sourcePoint"/>
                        <mxPoint x="310" y="190" as="targetPoint"/>
                        <Array as="points">
                            <mxPoint x="200" y="153"/>
                        </Array>
                    </mxGeometry>
                </mxCell>
                <mxCell id="nUJsthn_LZTXX1SrQf7L-36" value="" style="endArrow=diamondThin;endFill=0;endSize=16;html=1;entryX=0.5;entryY=1;entryDx=0;entryDy=0;exitX=0.5;exitY=0;exitDx=0;exitDy=0;" parent="1" source="10" target="2" edge="1">
                    <mxGeometry width="160" relative="1" as="geometry">
                        <mxPoint x="250" y="250" as="sourcePoint"/>
                        <mxPoint x="330" y="129" as="targetPoint"/>
                        <Array as="points">
                            <mxPoint x="400" y="200"/>
                        </Array>
                    </mxGeometry>
                </mxCell>
                <mxCell id="nUJsthn_LZTXX1SrQf7L-37" value="" style="endArrow=diamondThin;endFill=0;endSize=16;html=1;entryX=1;entryY=0.5;entryDx=0;entryDy=0;exitX=0.5;exitY=0;exitDx=0;exitDy=0;" parent="1" source="6" target="5" edge="1">
                    <mxGeometry width="160" relative="1" as="geometry">
                        <mxPoint x="410" y="250" as="sourcePoint"/>
                        <mxPoint x="410" y="176" as="targetPoint"/>
                        <Array as="points">
                            <mxPoint x="600" y="153"/>
                        </Array>
                    </mxGeometry>
                </mxCell>
            </root>
        </mxGraphModel>
    </diagram>
    <diagram id="tYTAuiZQ3LSsH4kyMiOV" name="PÃ¡gina-2">
        <mxGraphModel dx="868" dy="496" grid="1" gridSize="10" guides="1" tooltips="1" connect="1" arrows="1" fold="1" page="1" pageScale="1" pageWidth="827" pageHeight="1169" math="0" shadow="0">
            <root>
                <mxCell id="0"/>
                <mxCell id="1" parent="0"/>
                <mxCell id="Y4xJH2kH2g45ee_cIVgQ-1" value="" style="childLayout=tableLayout;recursiveResize=0;shadow=0;fillColor=none;" parent="1" vertex="1">
                    <mxGeometry x="40" y="40" width="720" height="360" as="geometry"/>
                </mxCell>
                <mxCell id="Y4xJH2kH2g45ee_cIVgQ-23" style="shape=tableRow;horizontal=0;startSize=0;swimlaneHead=0;swimlaneBody=0;top=0;left=0;bottom=0;right=0;dropTarget=0;collapsible=0;recursiveResize=0;expand=0;fontStyle=0;fillColor=none;strokeColor=inherit;" parent="Y4xJH2kH2g45ee_cIVgQ-1" vertex="1">
                    <mxGeometry width="720" height="60" as="geometry"/>
                </mxCell>
                <mxCell id="Y4xJH2kH2g45ee_cIVgQ-24" value="" style="connectable=0;recursiveResize=0;strokeColor=inherit;fillColor=none;align=center;whiteSpace=wrap;html=1;" parent="Y4xJH2kH2g45ee_cIVgQ-23" vertex="1">
                    <mxGeometry width="104" height="60" as="geometry">
                        <mxRectangle width="104" height="60" as="alternateBounds"/>
                    </mxGeometry>
                </mxCell>
                <mxCell id="Y4xJH2kH2g45ee_cIVgQ-25" value="&lt;span style=&quot;color: rgb(0, 0, 0); font-family: Helvetica; font-size: 12px; font-style: normal; font-variant-ligatures: normal; font-variant-caps: normal; font-weight: 400; letter-spacing: normal; orphans: 2; text-align: center; text-indent: 0px; text-transform: none; widows: 2; word-spacing: 0px; -webkit-text-stroke-width: 0px; white-space: normal; background-color: rgb(251, 251, 251); text-decoration-thickness: initial; text-decoration-style: initial; text-decoration-color: initial; display: inline !important; float: none;&quot;&gt;Seg&lt;/span&gt;" style="connectable=0;recursiveResize=0;strokeColor=inherit;fillColor=none;align=center;whiteSpace=wrap;html=1;" parent="Y4xJH2kH2g45ee_cIVgQ-23" vertex="1">
                    <mxGeometry x="104" width="102" height="60" as="geometry">
                        <mxRectangle width="102" height="60" as="alternateBounds"/>
                    </mxGeometry>
                </mxCell>
                <mxCell id="Y4xJH2kH2g45ee_cIVgQ-26" value="&lt;span style=&quot;color: rgb(0, 0, 0); font-family: Helvetica; font-size: 12px; font-style: normal; font-variant-ligatures: normal; font-variant-caps: normal; font-weight: 400; letter-spacing: normal; orphans: 2; text-align: center; text-indent: 0px; text-transform: none; widows: 2; word-spacing: 0px; -webkit-text-stroke-width: 0px; white-space: normal; background-color: rgb(251, 251, 251); text-decoration-thickness: initial; text-decoration-style: initial; text-decoration-color: initial; display: inline !important; float: none;&quot;&gt;Ter&lt;/span&gt;" style="connectable=0;recursiveResize=0;strokeColor=inherit;fillColor=none;align=center;whiteSpace=wrap;html=1;" parent="Y4xJH2kH2g45ee_cIVgQ-23" vertex="1">
                    <mxGeometry x="206" width="103" height="60" as="geometry">
                        <mxRectangle width="103" height="60" as="alternateBounds"/>
                    </mxGeometry>
                </mxCell>
                <mxCell id="Y4xJH2kH2g45ee_cIVgQ-27" value="&lt;span style=&quot;color: rgb(0, 0, 0); font-family: Helvetica; font-size: 12px; font-style: normal; font-variant-ligatures: normal; font-variant-caps: normal; font-weight: 400; letter-spacing: normal; orphans: 2; text-align: center; text-indent: 0px; text-transform: none; widows: 2; word-spacing: 0px; -webkit-text-stroke-width: 0px; white-space: normal; background-color: rgb(251, 251, 251); text-decoration-thickness: initial; text-decoration-style: initial; text-decoration-color: initial; display: inline !important; float: none;&quot;&gt;Qua&lt;/span&gt;" style="connectable=0;recursiveResize=0;strokeColor=inherit;fillColor=none;align=center;whiteSpace=wrap;html=1;" parent="Y4xJH2kH2g45ee_cIVgQ-23" vertex="1">
                    <mxGeometry x="309" width="102" height="60" as="geometry">
                        <mxRectangle width="102" height="60" as="alternateBounds"/>
                    </mxGeometry>
                </mxCell>
                <mxCell id="Y4xJH2kH2g45ee_cIVgQ-28" value="&lt;span style=&quot;color: rgb(0, 0, 0); font-family: Helvetica; font-size: 12px; font-style: normal; font-variant-ligatures: normal; font-variant-caps: normal; font-weight: 400; letter-spacing: normal; orphans: 2; text-align: center; text-indent: 0px; text-transform: none; widows: 2; word-spacing: 0px; -webkit-text-stroke-width: 0px; white-space: normal; background-color: rgb(251, 251, 251); text-decoration-thickness: initial; text-decoration-style: initial; text-decoration-color: initial; display: inline !important; float: none;&quot;&gt;Qui&lt;/span&gt;" style="connectable=0;recursiveResize=0;strokeColor=inherit;fillColor=none;align=center;whiteSpace=wrap;html=1;" parent="Y4xJH2kH2g45ee_cIVgQ-23" vertex="1">
                    <mxGeometry x="411" width="104" height="60" as="geometry">
                        <mxRectangle width="104" height="60" as="alternateBounds"/>
                    </mxGeometry>
                </mxCell>
                <mxCell id="Y4xJH2kH2g45ee_cIVgQ-29" value="&lt;span style=&quot;color: rgb(0, 0, 0); font-family: Helvetica; font-size: 12px; font-style: normal; font-variant-ligatures: normal; font-variant-caps: normal; font-weight: 400; letter-spacing: normal; orphans: 2; text-align: center; text-indent: 0px; text-transform: none; widows: 2; word-spacing: 0px; -webkit-text-stroke-width: 0px; white-space: normal; background-color: rgb(251, 251, 251); text-decoration-thickness: initial; text-decoration-style: initial; text-decoration-color: initial; display: inline !important; float: none;&quot;&gt;Sex&lt;/span&gt;" style="connectable=0;recursiveResize=0;strokeColor=inherit;fillColor=none;align=center;whiteSpace=wrap;html=1;" parent="Y4xJH2kH2g45ee_cIVgQ-23" vertex="1">
                    <mxGeometry x="515" width="102" height="60" as="geometry">
                        <mxRectangle width="102" height="60" as="alternateBounds"/>
                    </mxGeometry>
                </mxCell>
                <mxCell id="Y4xJH2kH2g45ee_cIVgQ-30" value="&lt;span style=&quot;color: rgb(0, 0, 0); font-family: Helvetica; font-size: 12px; font-style: normal; font-variant-ligatures: normal; font-variant-caps: normal; font-weight: 400; letter-spacing: normal; orphans: 2; text-align: center; text-indent: 0px; text-transform: none; widows: 2; word-spacing: 0px; -webkit-text-stroke-width: 0px; white-space: normal; background-color: rgb(251, 251, 251); text-decoration-thickness: initial; text-decoration-style: initial; text-decoration-color: initial; display: inline !important; float: none;&quot;&gt;Sab&lt;/span&gt;" style="connectable=0;recursiveResize=0;strokeColor=inherit;fillColor=none;align=center;whiteSpace=wrap;html=1;" parent="Y4xJH2kH2g45ee_cIVgQ-23" vertex="1">
                    <mxGeometry x="617" width="103" height="60" as="geometry">
                        <mxRectangle width="103" height="60" as="alternateBounds"/>
                    </mxGeometry>
                </mxCell>
                <mxCell id="Y4xJH2kH2g45ee_cIVgQ-2" value="" style="shape=tableRow;horizontal=0;startSize=0;swimlaneHead=0;swimlaneBody=0;top=0;left=0;bottom=0;right=0;dropTarget=0;collapsible=0;recursiveResize=0;expand=0;fontStyle=0;fillColor=none;strokeColor=inherit;" parent="Y4xJH2kH2g45ee_cIVgQ-1" vertex="1">
                    <mxGeometry y="60" width="720" height="61" as="geometry"/>
                </mxCell>
                <mxCell id="Y4xJH2kH2g45ee_cIVgQ-3" value="08:20 - 09:10" style="connectable=0;recursiveResize=0;strokeColor=inherit;fillColor=none;align=center;whiteSpace=wrap;html=1;" parent="Y4xJH2kH2g45ee_cIVgQ-2" vertex="1">
                    <mxGeometry width="104" height="61" as="geometry">
                        <mxRectangle width="104" height="61" as="alternateBounds"/>
                    </mxGeometry>
                </mxCell>
                <mxCell id="Y4xJH2kH2g45ee_cIVgQ-4" value="Disc. A" style="connectable=0;recursiveResize=0;strokeColor=inherit;fillColor=none;align=center;whiteSpace=wrap;html=1;" parent="Y4xJH2kH2g45ee_cIVgQ-2" vertex="1">
                    <mxGeometry x="104" width="102" height="61" as="geometry">
                        <mxRectangle width="102" height="61" as="alternateBounds"/>
                    </mxGeometry>
                </mxCell>
                <mxCell id="Y4xJH2kH2g45ee_cIVgQ-5" value="Disc. C" style="connectable=0;recursiveResize=0;strokeColor=inherit;fillColor=none;align=center;whiteSpace=wrap;html=1;" parent="Y4xJH2kH2g45ee_cIVgQ-2" vertex="1">
                    <mxGeometry x="206" width="103" height="61" as="geometry">
                        <mxRectangle width="103" height="61" as="alternateBounds"/>
                    </mxGeometry>
                </mxCell>
                <mxCell id="Y4xJH2kH2g45ee_cIVgQ-14" value="NULL" style="connectable=0;recursiveResize=0;strokeColor=inherit;fillColor=none;align=center;whiteSpace=wrap;html=1;" parent="Y4xJH2kH2g45ee_cIVgQ-2" vertex="1">
                    <mxGeometry x="309" width="102" height="61" as="geometry">
                        <mxRectangle width="102" height="61" as="alternateBounds"/>
                    </mxGeometry>
                </mxCell>
                <mxCell id="Y4xJH2kH2g45ee_cIVgQ-17" value="Disc. F" style="connectable=0;recursiveResize=0;strokeColor=inherit;fillColor=none;align=center;whiteSpace=wrap;html=1;" parent="Y4xJH2kH2g45ee_cIVgQ-2" vertex="1">
                    <mxGeometry x="411" width="104" height="61" as="geometry">
                        <mxRectangle width="104" height="61" as="alternateBounds"/>
                    </mxGeometry>
                </mxCell>
                <mxCell id="Y4xJH2kH2g45ee_cIVgQ-20" style="connectable=0;recursiveResize=0;strokeColor=inherit;fillColor=none;align=center;whiteSpace=wrap;html=1;" parent="Y4xJH2kH2g45ee_cIVgQ-2" vertex="1">
                    <mxGeometry x="515" width="102" height="61" as="geometry">
                        <mxRectangle width="102" height="61" as="alternateBounds"/>
                    </mxGeometry>
                </mxCell>
                <mxCell id="Y4xJH2kH2g45ee_cIVgQ-31" style="connectable=0;recursiveResize=0;strokeColor=inherit;fillColor=none;align=center;whiteSpace=wrap;html=1;" parent="Y4xJH2kH2g45ee_cIVgQ-2" vertex="1">
                    <mxGeometry x="617" width="103" height="61" as="geometry">
                        <mxRectangle width="103" height="61" as="alternateBounds"/>
                    </mxGeometry>
                </mxCell>
                <mxCell id="Y4xJH2kH2g45ee_cIVgQ-6" style="shape=tableRow;horizontal=0;startSize=0;swimlaneHead=0;swimlaneBody=0;top=0;left=0;bottom=0;right=0;dropTarget=0;collapsible=0;recursiveResize=0;expand=0;fontStyle=0;fillColor=none;strokeColor=inherit;" parent="Y4xJH2kH2g45ee_cIVgQ-1" vertex="1">
                    <mxGeometry y="121" width="720" height="59" as="geometry"/>
                </mxCell>
                <mxCell id="Y4xJH2kH2g45ee_cIVgQ-7" value="09:10 - 10:00" style="connectable=0;recursiveResize=0;strokeColor=inherit;fillColor=none;align=center;whiteSpace=wrap;html=1;" parent="Y4xJH2kH2g45ee_cIVgQ-6" vertex="1">
                    <mxGeometry width="104" height="59" as="geometry">
                        <mxRectangle width="104" height="59" as="alternateBounds"/>
                    </mxGeometry>
                </mxCell>
                <mxCell id="Y4xJH2kH2g45ee_cIVgQ-8" value="Disc. A" style="connectable=0;recursiveResize=0;strokeColor=inherit;fillColor=none;align=center;whiteSpace=wrap;html=1;" parent="Y4xJH2kH2g45ee_cIVgQ-6" vertex="1">
                    <mxGeometry x="104" width="102" height="59" as="geometry">
                        <mxRectangle width="102" height="59" as="alternateBounds"/>
                    </mxGeometry>
                </mxCell>
                <mxCell id="Y4xJH2kH2g45ee_cIVgQ-9" value="&lt;span style=&quot;color: rgb(0, 0, 0); font-family: Helvetica; font-size: 12px; font-style: normal; font-variant-ligatures: normal; font-variant-caps: normal; font-weight: 400; letter-spacing: normal; orphans: 2; text-align: center; text-indent: 0px; text-transform: none; widows: 2; word-spacing: 0px; -webkit-text-stroke-width: 0px; white-space: normal; background-color: rgb(251, 251, 251); text-decoration-thickness: initial; text-decoration-style: initial; text-decoration-color: initial; display: inline !important; float: none;&quot;&gt;Disc. C&lt;/span&gt;" style="connectable=0;recursiveResize=0;strokeColor=inherit;fillColor=none;align=center;whiteSpace=wrap;html=1;" parent="Y4xJH2kH2g45ee_cIVgQ-6" vertex="1">
                    <mxGeometry x="206" width="103" height="59" as="geometry">
                        <mxRectangle width="103" height="59" as="alternateBounds"/>
                    </mxGeometry>
                </mxCell>
                <mxCell id="Y4xJH2kH2g45ee_cIVgQ-15" value="NULL" style="connectable=0;recursiveResize=0;strokeColor=inherit;fillColor=none;align=center;whiteSpace=wrap;html=1;" parent="Y4xJH2kH2g45ee_cIVgQ-6" vertex="1">
                    <mxGeometry x="309" width="102" height="59" as="geometry">
                        <mxRectangle width="102" height="59" as="alternateBounds"/>
                    </mxGeometry>
                </mxCell>
                <mxCell id="Y4xJH2kH2g45ee_cIVgQ-18" value="NULL" style="connectable=0;recursiveResize=0;strokeColor=inherit;fillColor=none;align=center;whiteSpace=wrap;html=1;" parent="Y4xJH2kH2g45ee_cIVgQ-6" vertex="1">
                    <mxGeometry x="411" width="104" height="59" as="geometry">
                        <mxRectangle width="104" height="59" as="alternateBounds"/>
                    </mxGeometry>
                </mxCell>
                <mxCell id="Y4xJH2kH2g45ee_cIVgQ-21" style="connectable=0;recursiveResize=0;strokeColor=inherit;fillColor=none;align=center;whiteSpace=wrap;html=1;" parent="Y4xJH2kH2g45ee_cIVgQ-6" vertex="1">
                    <mxGeometry x="515" width="102" height="59" as="geometry">
                        <mxRectangle width="102" height="59" as="alternateBounds"/>
                    </mxGeometry>
                </mxCell>
                <mxCell id="Y4xJH2kH2g45ee_cIVgQ-32" style="connectable=0;recursiveResize=0;strokeColor=inherit;fillColor=none;align=center;whiteSpace=wrap;html=1;" parent="Y4xJH2kH2g45ee_cIVgQ-6" vertex="1">
                    <mxGeometry x="617" width="103" height="59" as="geometry">
                        <mxRectangle width="103" height="59" as="alternateBounds"/>
                    </mxGeometry>
                </mxCell>
                <mxCell id="Y4xJH2kH2g45ee_cIVgQ-10" style="shape=tableRow;horizontal=0;startSize=0;swimlaneHead=0;swimlaneBody=0;top=0;left=0;bottom=0;right=0;dropTarget=0;collapsible=0;recursiveResize=0;expand=0;fontStyle=0;fillColor=none;strokeColor=inherit;" parent="Y4xJH2kH2g45ee_cIVgQ-1" vertex="1">
                    <mxGeometry y="180" width="720" height="60" as="geometry"/>
                </mxCell>
                <mxCell id="Y4xJH2kH2g45ee_cIVgQ-11" value="10:10 - 11:00" style="connectable=0;recursiveResize=0;strokeColor=inherit;fillColor=none;align=center;whiteSpace=wrap;html=1;" parent="Y4xJH2kH2g45ee_cIVgQ-10" vertex="1">
                    <mxGeometry width="104" height="60" as="geometry">
                        <mxRectangle width="104" height="60" as="alternateBounds"/>
                    </mxGeometry>
                </mxCell>
                <mxCell id="Y4xJH2kH2g45ee_cIVgQ-12" value="Disc. B" style="connectable=0;recursiveResize=0;strokeColor=inherit;fillColor=none;align=center;whiteSpace=wrap;html=1;" parent="Y4xJH2kH2g45ee_cIVgQ-10" vertex="1">
                    <mxGeometry x="104" width="102" height="60" as="geometry">
                        <mxRectangle width="102" height="60" as="alternateBounds"/>
                    </mxGeometry>
                </mxCell>
                <mxCell id="Y4xJH2kH2g45ee_cIVgQ-13" value="&lt;span style=&quot;color: rgb(0, 0, 0); font-family: Helvetica; font-size: 12px; font-style: normal; font-variant-ligatures: normal; font-variant-caps: normal; font-weight: 400; letter-spacing: normal; orphans: 2; text-align: center; text-indent: 0px; text-transform: none; widows: 2; word-spacing: 0px; -webkit-text-stroke-width: 0px; white-space: normal; background-color: rgb(251, 251, 251); text-decoration-thickness: initial; text-decoration-style: initial; text-decoration-color: initial; float: none; display: inline !important;&quot;&gt;Disc. D&lt;/span&gt;" style="connectable=0;recursiveResize=0;strokeColor=inherit;fillColor=none;align=center;whiteSpace=wrap;html=1;" parent="Y4xJH2kH2g45ee_cIVgQ-10" vertex="1">
                    <mxGeometry x="206" width="103" height="60" as="geometry">
                        <mxRectangle width="103" height="60" as="alternateBounds"/>
                    </mxGeometry>
                </mxCell>
                <mxCell id="Y4xJH2kH2g45ee_cIVgQ-16" value="Disc. E" style="connectable=0;recursiveResize=0;strokeColor=inherit;fillColor=none;align=center;whiteSpace=wrap;html=1;" parent="Y4xJH2kH2g45ee_cIVgQ-10" vertex="1">
                    <mxGeometry x="309" width="102" height="60" as="geometry">
                        <mxRectangle width="102" height="60" as="alternateBounds"/>
                    </mxGeometry>
                </mxCell>
                <mxCell id="Y4xJH2kH2g45ee_cIVgQ-19" value="Disc. G" style="connectable=0;recursiveResize=0;strokeColor=inherit;fillColor=none;align=center;whiteSpace=wrap;html=1;" parent="Y4xJH2kH2g45ee_cIVgQ-10" vertex="1">
                    <mxGeometry x="411" width="104" height="60" as="geometry">
                        <mxRectangle width="104" height="60" as="alternateBounds"/>
                    </mxGeometry>
                </mxCell>
                <mxCell id="Y4xJH2kH2g45ee_cIVgQ-22" style="connectable=0;recursiveResize=0;strokeColor=inherit;fillColor=none;align=center;whiteSpace=wrap;html=1;" parent="Y4xJH2kH2g45ee_cIVgQ-10" vertex="1">
                    <mxGeometry x="515" width="102" height="60" as="geometry">
                        <mxRectangle width="102" height="60" as="alternateBounds"/>
                    </mxGeometry>
                </mxCell>
                <mxCell id="Y4xJH2kH2g45ee_cIVgQ-33" style="connectable=0;recursiveResize=0;strokeColor=inherit;fillColor=none;align=center;whiteSpace=wrap;html=1;" parent="Y4xJH2kH2g45ee_cIVgQ-10" vertex="1">
                    <mxGeometry x="617" width="103" height="60" as="geometry">
                        <mxRectangle width="103" height="60" as="alternateBounds"/>
                    </mxGeometry>
                </mxCell>
                <mxCell id="Y4xJH2kH2g45ee_cIVgQ-34" style="shape=tableRow;horizontal=0;startSize=0;swimlaneHead=0;swimlaneBody=0;top=0;left=0;bottom=0;right=0;dropTarget=0;collapsible=0;recursiveResize=0;expand=0;fontStyle=0;fillColor=none;strokeColor=inherit;" parent="Y4xJH2kH2g45ee_cIVgQ-1" vertex="1">
                    <mxGeometry y="240" width="720" height="60" as="geometry"/>
                </mxCell>
                <mxCell id="Y4xJH2kH2g45ee_cIVgQ-35" value="11:00 - 11:50" style="connectable=0;recursiveResize=0;strokeColor=inherit;fillColor=none;align=center;whiteSpace=wrap;html=1;" parent="Y4xJH2kH2g45ee_cIVgQ-34" vertex="1">
                    <mxGeometry width="104" height="60" as="geometry">
                        <mxRectangle width="104" height="60" as="alternateBounds"/>
                    </mxGeometry>
                </mxCell>
                <mxCell id="Y4xJH2kH2g45ee_cIVgQ-36" value="Disc. B" style="connectable=0;recursiveResize=0;strokeColor=inherit;fillColor=none;align=center;whiteSpace=wrap;html=1;" parent="Y4xJH2kH2g45ee_cIVgQ-34" vertex="1">
                    <mxGeometry x="104" width="102" height="60" as="geometry">
                        <mxRectangle width="102" height="60" as="alternateBounds"/>
                    </mxGeometry>
                </mxCell>
                <mxCell id="Y4xJH2kH2g45ee_cIVgQ-37" value="&lt;span style=&quot;color: rgb(0, 0, 0);&quot;&gt;Disc. D&lt;/span&gt;" style="connectable=0;recursiveResize=0;strokeColor=inherit;fillColor=none;align=center;whiteSpace=wrap;html=1;" parent="Y4xJH2kH2g45ee_cIVgQ-34" vertex="1">
                    <mxGeometry x="206" width="103" height="60" as="geometry">
                        <mxRectangle width="103" height="60" as="alternateBounds"/>
                    </mxGeometry>
                </mxCell>
                <mxCell id="Y4xJH2kH2g45ee_cIVgQ-38" value="Disc. E" style="connectable=0;recursiveResize=0;strokeColor=inherit;fillColor=none;align=center;whiteSpace=wrap;html=1;" parent="Y4xJH2kH2g45ee_cIVgQ-34" vertex="1">
                    <mxGeometry x="309" width="102" height="60" as="geometry">
                        <mxRectangle width="102" height="60" as="alternateBounds"/>
                    </mxGeometry>
                </mxCell>
                <mxCell id="Y4xJH2kH2g45ee_cIVgQ-39" value="Disc. G" style="connectable=0;recursiveResize=0;strokeColor=inherit;fillColor=none;align=center;whiteSpace=wrap;html=1;" parent="Y4xJH2kH2g45ee_cIVgQ-34" vertex="1">
                    <mxGeometry x="411" width="104" height="60" as="geometry">
                        <mxRectangle width="104" height="60" as="alternateBounds"/>
                    </mxGeometry>
                </mxCell>
                <mxCell id="Y4xJH2kH2g45ee_cIVgQ-40" style="connectable=0;recursiveResize=0;strokeColor=inherit;fillColor=none;align=center;whiteSpace=wrap;html=1;" parent="Y4xJH2kH2g45ee_cIVgQ-34" vertex="1">
                    <mxGeometry x="515" width="102" height="60" as="geometry">
                        <mxRectangle width="102" height="60" as="alternateBounds"/>
                    </mxGeometry>
                </mxCell>
                <mxCell id="Y4xJH2kH2g45ee_cIVgQ-41" style="connectable=0;recursiveResize=0;strokeColor=inherit;fillColor=none;align=center;whiteSpace=wrap;html=1;" parent="Y4xJH2kH2g45ee_cIVgQ-34" vertex="1">
                    <mxGeometry x="617" width="103" height="60" as="geometry">
                        <mxRectangle width="103" height="60" as="alternateBounds"/>
                    </mxGeometry>
                </mxCell>
                <mxCell id="Y4xJH2kH2g45ee_cIVgQ-42" style="shape=tableRow;horizontal=0;startSize=0;swimlaneHead=0;swimlaneBody=0;top=0;left=0;bottom=0;right=0;dropTarget=0;collapsible=0;recursiveResize=0;expand=0;fontStyle=0;fillColor=none;strokeColor=inherit;" parent="Y4xJH2kH2g45ee_cIVgQ-1" vertex="1">
                    <mxGeometry y="300" width="720" height="60" as="geometry"/>
                </mxCell>
                <mxCell id="Y4xJH2kH2g45ee_cIVgQ-43" value="11:50 - 12:40" style="connectable=0;recursiveResize=0;strokeColor=inherit;fillColor=none;align=center;whiteSpace=wrap;html=1;" parent="Y4xJH2kH2g45ee_cIVgQ-42" vertex="1">
                    <mxGeometry width="104" height="60" as="geometry">
                        <mxRectangle width="104" height="60" as="alternateBounds"/>
                    </mxGeometry>
                </mxCell>
                <mxCell id="Y4xJH2kH2g45ee_cIVgQ-44" style="connectable=0;recursiveResize=0;strokeColor=inherit;fillColor=none;align=center;whiteSpace=wrap;html=1;" parent="Y4xJH2kH2g45ee_cIVgQ-42" vertex="1">
                    <mxGeometry x="104" width="102" height="60" as="geometry">
                        <mxRectangle width="102" height="60" as="alternateBounds"/>
                    </mxGeometry>
                </mxCell>
                <mxCell id="Y4xJH2kH2g45ee_cIVgQ-45" style="connectable=0;recursiveResize=0;strokeColor=inherit;fillColor=none;align=center;whiteSpace=wrap;html=1;" parent="Y4xJH2kH2g45ee_cIVgQ-42" vertex="1">
                    <mxGeometry x="206" width="103" height="60" as="geometry">
                        <mxRectangle width="103" height="60" as="alternateBounds"/>
                    </mxGeometry>
                </mxCell>
                <mxCell id="Y4xJH2kH2g45ee_cIVgQ-46" value="Disc. E" style="connectable=0;recursiveResize=0;strokeColor=inherit;fillColor=none;align=center;whiteSpace=wrap;html=1;" parent="Y4xJH2kH2g45ee_cIVgQ-42" vertex="1">
                    <mxGeometry x="309" width="102" height="60" as="geometry">
                        <mxRectangle width="102" height="60" as="alternateBounds"/>
                    </mxGeometry>
                </mxCell>
                <mxCell id="Y4xJH2kH2g45ee_cIVgQ-47" style="connectable=0;recursiveResize=0;strokeColor=inherit;fillColor=none;align=center;whiteSpace=wrap;html=1;" parent="Y4xJH2kH2g45ee_cIVgQ-42" vertex="1">
                    <mxGeometry x="411" width="104" height="60" as="geometry">
                        <mxRectangle width="104" height="60" as="alternateBounds"/>
                    </mxGeometry>
                </mxCell>
                <mxCell id="Y4xJH2kH2g45ee_cIVgQ-48" style="connectable=0;recursiveResize=0;strokeColor=inherit;fillColor=none;align=center;whiteSpace=wrap;html=1;" parent="Y4xJH2kH2g45ee_cIVgQ-42" vertex="1">
                    <mxGeometry x="515" width="102" height="60" as="geometry">
                        <mxRectangle width="102" height="60" as="alternateBounds"/>
                    </mxGeometry>
                </mxCell>
                <mxCell id="Y4xJH2kH2g45ee_cIVgQ-49" style="connectable=0;recursiveResize=0;strokeColor=inherit;fillColor=none;align=center;whiteSpace=wrap;html=1;" parent="Y4xJH2kH2g45ee_cIVgQ-42" vertex="1">
                    <mxGeometry x="617" width="103" height="60" as="geometry">
                        <mxRectangle width="103" height="60" as="alternateBounds"/>
                    </mxGeometry>
                </mxCell>
                <mxCell id="Y4xJH2kH2g45ee_cIVgQ-50" value="&lt;font style=&quot;font-size: 20px;&quot;&gt;PARA CADA TURMA&lt;/font&gt;" style="text;html=1;align=center;verticalAlign=middle;whiteSpace=wrap;rounded=0;" parent="1" vertex="1">
                    <mxGeometry x="307" y="10" width="214" height="30" as="geometry"/>
                </mxCell>
            </root>
        </mxGraphModel>
    </diagram>
</mxfile>